<svg width="20" height="20" viewBox="0 0 20 20" fill="none" xmlns="http://www.w3.org/2000/svg">
<path d="M3.59038 2.25701L11.1633 10L9.78038 11.414L6.41006 7.96801C5.97712 8.71854 5.79572 9.59309 5.89343 10.4587C5.99114 11.3243 6.36262 12.1336 6.95139 12.7636C7.54017 13.3935 8.31402 13.8097 9.15531 13.9488C9.9966 14.0879 10.8593 13.9423 11.6122 13.5341C12.3652 13.126 12.9672 12.4776 13.3267 11.6876C13.6863 10.8976 13.7837 10.0092 13.6041 9.15737C13.4246 8.30558 12.9779 7.53702 12.332 6.96856C11.6862 6.4001 10.8764 6.06282 10.0259 6.00801L8.26051 4.20301C9.59479 3.83717 11.0125 3.96434 12.2641 4.56214C13.5157 5.15994 14.5209 6.19004 15.1028 7.47109C15.6846 8.75213 15.8058 10.202 15.445 11.5654C15.0842 12.9288 14.2645 14.1184 13.1302 14.9246C11.996 15.7309 10.6199 16.1022 9.24429 15.9731C7.86864 15.8441 6.58162 15.223 5.60982 14.2191C4.63802 13.2153 4.04374 11.8931 3.9316 10.4853C3.81947 9.0775 4.19667 7.6744 4.9968 6.52301L3.59918 5.09401C2.43286 6.63136 1.85446 8.55061 1.97225 10.4925C2.09004 12.4344 2.89595 14.2659 4.23912 15.6441C5.5823 17.0223 7.37067 17.8528 9.26951 17.9802C11.1683 18.1075 13.0475 17.5229 14.5552 16.3359C16.0629 15.1488 17.0959 13.4407 17.4607 11.5311C17.8255 9.62156 17.4973 7.64151 16.5373 5.96158C15.5773 4.28165 14.0515 3.01699 12.2454 2.40432C10.4393 1.79164 8.4767 1.87294 6.72499 2.63301L5.25598 1.13201C6.65235 0.38603 8.20489 -0.00241366 9.78038 1.12842e-05C15.1821 1.12842e-05 19.5608 4.47701 19.5608 10C19.5608 15.523 15.1821 20 9.78038 20C4.37868 20 5.04788e-06 15.523 5.04788e-06 10C-0.0014692 8.51776 0.319992 7.05379 0.941036 5.71445C1.56208 4.37511 2.46711 3.19403 3.59038 2.25701Z" fill="#BFBFBF"/>
</svg>
